<svg width="395" height="655" xmlns="http://www.w3.org/2000/svg" xmlns:xlink="http://www.w3.org/1999/xlink" overflow="hidden"><defs><clipPath id="clip0"><path d="M443 55 838 55 838 710 443 710Z" fill-rule="evenodd" clip-rule="evenodd"/></clipPath></defs><g clip-path="url(#clip0)" transform="translate(-443 -55)"><path d="M444.5 172.5 640.864 172.5" stroke="#FFFFFF" stroke-width="0.666667" stroke-miterlimit="8" fill="none" fill-rule="evenodd"/><path d="M640.5 336.5 836.864 336.5" stroke="#FFFFFF" stroke-width="0.666667" stroke-miterlimit="8" fill="none" fill-rule="evenodd"/><path d="M444.5 508.5 640.864 508.5" stroke="#FFFFFF" stroke-width="0.666667" stroke-miterlimit="8" fill="none" fill-rule="evenodd"/><path d="M644 55 644 665.261 636 665.261 636 55ZM657.455 643.277 640 673.2 622.545 643.277C621.432 641.369 622.076 638.92 623.985 637.807 625.893 636.694 628.342 637.338 629.455 639.246L643.455 663.246 636.545 663.246 650.545 639.246C651.658 637.338 654.107 636.694 656.016 637.807 657.924 638.92 658.568 641.369 657.455 643.277Z" fill="#FFFFFF"/></g></svg>