<svg width="162" height="181" xmlns="http://www.w3.org/2000/svg" xmlns:xlink="http://www.w3.org/1999/xlink" overflow="hidden"><defs><clipPath id="clip0"><path d="M557 278 719 278 719 459 557 459Z" fill-rule="evenodd" clip-rule="evenodd"/></clipPath></defs><g clip-path="url(#clip0)" transform="translate(-557 -278)"><path d="M604.667 458 598.686 427.673C560.206 405.961 546.614 357.165 568.327 318.686 590.039 280.206 638.835 266.614 677.314 288.327 715.794 310.039 729.386 358.835 707.673 397.314 691.647 425.716 659.985 441.547 627.648 437.327Z" fill="#4472C4" fill-rule="evenodd"/><path d="M661.707 369.336 661.707 369.336C659.121 374.467 648.921 378.172 637.572 378.172 625.935 378.172 617.172 374.467 613.293 369.336 613.293 368.195 612 369.336 612 369.336 612 370.618 612 376.89 612 376.89 612 383.303 623.493 390.857 637.572 390.857 651.507 390.857 662.856 383.303 662.856 376.89 662.856 376.89 662.856 370.618 662.856 369.336 662.856 369.336 661.707 368.195 661.707 369.336ZM661.707 351.805 661.707 351.805C659.121 355.51 648.921 359.359 637.572 359.359 625.935 359.359 617.172 355.51 613.293 351.805 613.293 350.522 612 351.805 612 351.805L612 360.641C612 365.63 623.493 370.618 637.572 370.618 651.507 370.618 662.856 365.63 662.856 360.641L662.856 351.805C662.856 351.805 661.707 350.522 661.707 351.805ZM637.572 329 637.572 329C623.493 329 612 332.706 612 337.837 612 342.825 612 342.825 612 342.825 612 347.956 623.493 351.805 637.572 351.805 651.507 351.805 662.856 347.956 662.856 342.825 662.856 337.837 662.856 337.837 662.856 337.837 662.856 332.706 651.507 329 637.572 329Z" fill="#FFFFFF" fill-rule="evenodd"/></g></svg>