<svg id="Layer_1" data-name="Layer 1" xmlns="http://www.w3.org/2000/svg" viewBox="0 0 502.7 63.21"><defs><style>.cls-1{fill:#010101;}.cls-2{fill:#e1a239;}.cls-3{fill:#11ae57;}.cls-4{fill:#fffffa;}</style></defs><title>mcb-logo-old</title><path class="cls-1" d="M88.39,9.78a0.56,0.56,0,0,1,.38-0.59c0.18,0,.32.11,0.61,0.7l6.17,12.56,6.14-12.72a0.7,0.7,0,0,1,.5-0.54c0.2,0,.34.23,0.41,0.7l2.06,13.82c0.2,1.42.43,2.08,1.11,2.28a4.49,4.49,0,0,0,1.4.23c0.2,0,.36,0,0.36.16s-0.27.25-.59,0.25c-0.57,0-3.68,0-4.58-.11-0.52,0-.66-0.11-0.66-0.25a0.31,0.31,0,0,1,.25-0.25,1,1,0,0,0,.11-1l-1.36-9.82h-0.09L95.68,25.3c-0.52,1.06-.63,1.26-0.83,1.26a2.19,2.19,0,0,1-.79-1.13c-0.54-1-2.33-4.5-2.6-5.13-0.2-.47-1.56-3.14-2.35-4.83H89l-1.17,8.81a8.74,8.74,0,0,0-.07,1.06,0.74,0.74,0,0,0,.68.72,4.33,4.33,0,0,0,.95.11c0.18,0,.34,0,0.34.16s-0.2.25-.54,0.25c-0.95,0-2-.07-2.37-0.07s-1.51.07-2.24,0.07c-0.23,0-.41,0-0.41-0.25s0.14-.16.36-0.16a2.9,2.9,0,0,0,.68-0.07c0.63-.14.81-1,0.93-1.78Z" transform="translate(-1.3 0)"/><path class="cls-1" d="M110.66,17.62c0-2.91,0-3.46,0-4.07a0.94,0.94,0,0,0-.86-1,3.74,3.74,0,0,0-.79-0.07c-0.2,0-.34-0.07-0.34-0.2s0.16-.18.45-0.18c1,0,2.3,0,2.87,0s5,0,5.42,0a8.34,8.34,0,0,0,.84-0.11,2.42,2.42,0,0,1,.32-0.09,0.14,0.14,0,0,1,.14.18,8.49,8.49,0,0,0-.16,1.24c0,0.2-.07,1-0.11,1.26a0.34,0.34,0,0,1-.23.32c-0.14,0-.16-0.09-0.16-0.25a1.79,1.79,0,0,0-.14-0.7c-0.16-.34-0.32-0.61-1.31-0.7-0.34,0-2.71-.09-3.12-0.09a0.15,0.15,0,0,0-.14.18V18.1c0,0.11,0,.2.14,0.2,0.45,0,3,0,3.48,0a1.56,1.56,0,0,0,.95-0.29,0.8,0.8,0,0,1,.32-0.25,0.18,0.18,0,0,1,.16.2c0,0.11,0,.43-0.16,1.4,0,0.38-.09,1.15-0.09,1.29s0,0.43-.2.43a0.15,0.15,0,0,1-.18-0.16c0-.2,0-0.45-0.07-0.7a1,1,0,0,0-1.11-.74c-0.36,0-2.62-.09-3.12-0.09-0.09,0-.11.09-0.11,0.2v1.54c0,0.66,0,2.28,0,2.85,0,1.31.65,1.6,2.69,1.6a5.36,5.36,0,0,0,1.88-.25,1.62,1.62,0,0,0,.86-1.42c0-.2.09-0.29,0.22-0.29s0.18,0.25.18,0.45a13,13,0,0,1-.27,2.12c-0.14.5-.32,0.5-1.06,0.5-1.49,0-2.69,0-3.66-.07s-1.72,0-2.3,0l-1.13,0c-0.47,0-1,0-1.38,0-0.25,0-.38-0.07-0.38-0.2s0.07-.2.32-0.2a2.93,2.93,0,0,0,.7-0.07,1,1,0,0,0,.59-1c0.09-.81.09-2.33,0.09-4.09V17.62h0Z" transform="translate(-1.3 0)"/><path class="cls-1" d="M123.22,17.62c0-2.91,0-3.46,0-4.07a0.94,0.94,0,0,0-.86-1,3.63,3.63,0,0,0-.79-0.07c-0.2,0-.34-0.07-0.34-0.2s0.16-.18.45-0.18c1,0,2.3,0,2.71,0,0.68,0,2.49,0,3.09,0a7,7,0,0,1,3.77.81,3.35,3.35,0,0,1,1.4,2.64c0,1.42-.81,2.69-2.76,4.25,1.76,2.17,3.16,3.91,4.36,5.1a3.73,3.73,0,0,0,2.12,1.26,1.91,1.91,0,0,0,.47,0,0.23,0.23,0,0,1,.25.2c0,0.16-.13.2-0.38,0.2h-1.9a4.3,4.3,0,0,1-2.17-.38,9,9,0,0,1-2.71-2.82c-0.79-1-1.63-2.33-1.87-2.62a0.46,0.46,0,0,0-.36-0.14l-1.79,0a0.14,0.14,0,0,0-.16.16V21c0,1.78,0,3.27.11,4.09a0.89,0.89,0,0,0,.77,1,7.38,7.38,0,0,0,1,.07,0.23,0.23,0,0,1,.25.2c0,0.14-.16.2-0.41,0.2-1.15,0-2.8-.07-3.09-0.07s-1.65.07-2.44,0.07c-0.25,0-.38-0.07-0.38-0.2s0.07-.2.32-0.2a2.87,2.87,0,0,0,.7-0.07,1,1,0,0,0,.59-1c0.09-.81.09-2.33,0.09-4.09V17.62h0Zm2.53,1.49a0.3,0.3,0,0,0,.18.34,5.47,5.47,0,0,0,1.51.18,2,2,0,0,0,1.4-.32,3.25,3.25,0,0,0,1.29-2.85c0-2.71-1.85-3.41-3-3.41a7.35,7.35,0,0,0-1.17.07,0.24,0.24,0,0,0-.18.27v5.71h0Z" transform="translate(-1.3 0)"/><path class="cls-1" d="M138.92,24.76a7.11,7.11,0,0,1-2.49-5.67,7.14,7.14,0,0,1,2.33-5.26,9,9,0,0,1,6.3-2A20.25,20.25,0,0,1,148,12c0.75,0.11,1.4.25,2,.32,0.23,0,.29.11,0.29,0.23s0,0.38-.09,1.06,0,1.69-.07,2.08-0.09.48-.27,0.48-0.2-.16-0.2-0.41a2.71,2.71,0,0,0-.77-1.78A5.62,5.62,0,0,0,145,12.84a5.35,5.35,0,0,0-3.75,1.09,6.23,6.23,0,0,0-1.83,5,6.4,6.4,0,0,0,6.19,6.73c1.76,0,2.73-.14,3.52-1a3.08,3.08,0,0,0,.68-1.29c0-.29.09-0.38,0.25-0.38a0.31,0.31,0,0,1,.23.34,16.93,16.93,0,0,1-.43,2.55,0.68,0.68,0,0,1-.52.57,11.67,11.67,0,0,1-3.59.43,10.23,10.23,0,0,1-6.82-2.08" transform="translate(-1.3 0)"/><path class="cls-1" d="M155.39,21.73a0.15,0.15,0,0,0-.18.14l-1.06,2.6a3.47,3.47,0,0,0-.29,1.17c0,0.34.18,0.54,0.79,0.54h0.29c0.25,0,.29.09,0.29,0.2s-0.11.2-.32,0.2c-0.65,0-1.58-.07-2.21-0.07-0.2,0-1.26.07-2.3,0.07-0.25,0-.36,0-0.36-0.2a0.2,0.2,0,0,1,.23-0.2l0.59,0c0.9-.14,1.24-0.72,1.65-1.69l5.2-12a1,1,0,0,1,.59-0.77c0.29,0,.38.18,0.59,0.61,0.48,1.06,3.8,8.83,5.06,11.75,0.77,1.74,1.33,2,1.7,2.06a4.91,4.91,0,0,0,.74.07c0.18,0,.27.07,0.27,0.2s-0.11.2-.86,0.2-2.15,0-3.82,0c-0.36,0-.59,0-0.59-0.16s0-.18.25-0.2a0.3,0.3,0,0,0,.18-0.43l-1.54-3.89a0.19,0.19,0,0,0-.2-0.14h-4.68Zm4.25-1.06c0.09,0,.11,0,0.09-0.11l-1.88-4.81a0.27,0.27,0,0,0-.09-0.18,0.22,0.22,0,0,0-.11.18l-1.92,4.79c0,0.09,0,.14.07,0.14h3.84Z" transform="translate(-1.3 0)"/><path class="cls-1" d="M170,24c0,1.49.29,1.94,0.68,2.08a3.4,3.4,0,0,0,1,.14c0.23,0,.34.09,0.34,0.2s-0.18.2-.45,0.2c-1.29,0-2.21-.07-2.57-0.07-0.18,0-1.13.07-2.15,0.07-0.27,0-.45,0-0.45-0.2a0.28,0.28,0,0,1,.32-0.2,4.14,4.14,0,0,0,.9-0.09c0.52-.14.59-0.66,0.61-2.33l0.18-11.38c0-.38.13-0.66,0.34-0.66a1.71,1.71,0,0,1,.86.63c0.25,0.25,3.23,3.3,6.12,6.12,1.35,1.33,4,4,4.29,4.31h0.09L180,14.26c0-1.17-.2-1.51-0.68-1.69a3.31,3.31,0,0,0-1-.11c-0.25,0-.32-0.09-0.32-0.2s0.2-.18.5-0.18c1,0,2.1,0,2.53,0,0.23,0,1,0,1.94,0,0.27,0,.45,0,0.45.18s-0.11.2-.34,0.2a2,2,0,0,0-.61.07c-0.54.16-.7,0.5-0.72,1.58L181.48,26.2c0,0.43-.16.61-0.32,0.61a1.18,1.18,0,0,1-.81-0.41c-1.24-1.15-3.73-3.52-5.81-5.53s-4.27-4.41-4.65-4.74h-0.07Z" transform="translate(-1.3 0)"/><path class="cls-1" d="M190.45,13.24l-3,.07c-1.15,0-1.63.16-1.92,0.59a2.27,2.27,0,0,0-.34.65,0.25,0.25,0,0,1-.23.25c-0.13,0-.18-0.11-0.18-0.32s0.38-2.17.43-2.33,0.11-.36.23-0.36,0.36,0.16.86,0.23a18.55,18.55,0,0,0,2,.09h8.06a8.82,8.82,0,0,0,1.35-.09c0.32,0,.47-0.09.54-0.09s0.16,0.11.16,0.41,0,1.83,0,2.33c0,0.2-.07.32-0.18,0.32s-0.2-.09-0.23-0.38l0-.2c0-.5-0.57-1.08-2.35-1.11l-2.51,0V21c0,1.76,0,3.28.11,4.11a0.89,0.89,0,0,0,.77,1,7.32,7.32,0,0,0,1,.07,0.26,0.26,0,0,1,.32.2c0,0.14-.16.2-0.38,0.2-1.31,0-2.64-.07-3.21-0.07s-1.81.07-2.6,0.07c-0.25,0-.38-0.07-0.38-0.2s0.07-.2.32-0.2a2.81,2.81,0,0,0,.7-0.07,0.94,0.94,0,0,0,.59-1c0.09-.81.09-2.33,0.09-4.09V13.24Z" transform="translate(-1.3 0)"/><path class="cls-1" d="M202.1,17.62c0-2.91,0-3.46,0-4.07a0.92,0.92,0,0,0-.68-1,2.56,2.56,0,0,0-.72-0.09c-0.2,0-.32,0-0.32-0.23s0.16-.16.47-0.16c0.75,0,2.1,0,2.67,0s1.79,0,2.55,0c0.25,0,.41,0,0.41.16s-0.11.23-.32,0.23a2.85,2.85,0,0,0-.59.07,0.86,0.86,0,0,0-.74,1c0,0.61,0,1.15,0,4.07V21c0,1.85,0,3.39.09,4.2a0.84,0.84,0,0,0,.79.9,7.44,7.44,0,0,0,1,.07,0.26,0.26,0,0,1,.32.2c0,0.14-.16.2-0.38,0.2-1.31,0-2.66-.07-3.21-0.07s-1.81.07-2.6,0.07c-0.25,0-.38-0.07-0.38-0.2s0.07-.2.32-0.2a2.93,2.93,0,0,0,.7-0.07,0.83,0.83,0,0,0,.59-0.93c0.09-.79.09-2.33,0.09-4.18V17.62h0Z" transform="translate(-1.3 0)"/><path class="cls-1" d="M214,21c0,2.46,0,3.68.43,4s1.11,0.41,2.64.41c1.06,0,1.83,0,2.33-.54a2.32,2.32,0,0,0,.5-1.15c0-.18.07-0.29,0.23-0.29s0.18,0.2.18,0.43a14.41,14.41,0,0,1-.29,2.21c-0.13.43-.23,0.52-1.26,0.52-1.42,0-2.58,0-3.57-.07s-1.83,0-2.64,0l-1.13,0c-0.47,0-1,0-1.38,0-0.25,0-.38-0.07-0.38-0.2s0.07-.2.32-0.2a3,3,0,0,0,.7-0.07,1,1,0,0,0,.59-1c0.09-.81.09-2.33,0.09-4.09V17.62c0-2.91,0-3.46,0-4.07a0.94,0.94,0,0,0-.86-1,2.65,2.65,0,0,0-.65-0.07c-0.23,0-.34-0.07-0.34-0.2s0.13-.18.43-0.18c0.93,0,2.19,0,2.73,0s2.1,0,2.87,0c0.29,0,.43,0,0.43.18s-0.11.2-.36,0.2a4.43,4.43,0,0,0-.77.07,0.86,0.86,0,0,0-.74,1c0,0.61,0,1.15,0,4.07V21h0Z" transform="translate(-1.3 0)"/><path class="cls-1" d="M223.77,17.62c0-2.91,0-3.46,0-4.07a0.94,0.94,0,0,0-.86-1,3.74,3.74,0,0,0-.79-0.07c-0.2,0-.34-0.07-0.34-0.2s0.16-.18.45-0.18c1,0,2.3,0,2.87,0s5,0,5.42,0a8.34,8.34,0,0,0,.84-0.11,2.42,2.42,0,0,1,.32-0.09,0.14,0.14,0,0,1,.13.18,8.49,8.49,0,0,0-.16,1.24c0,0.2-.07,1-0.11,1.26a0.34,0.34,0,0,1-.23.32c-0.13,0-.16-0.09-0.16-0.25A1.79,1.79,0,0,0,231,14c-0.16-.34-0.32-0.61-1.31-0.7-0.34,0-2.71-.09-3.12-0.09a0.15,0.15,0,0,0-.13.18V18.1c0,0.11,0,.2.13,0.2,0.45,0,3,0,3.48,0A1.56,1.56,0,0,0,231,18a0.8,0.8,0,0,1,.32-0.25,0.18,0.18,0,0,1,.16.2c0,0.11,0,.43-0.16,1.4,0,0.38-.09,1.15-0.09,1.29s0,0.43-.2.43a0.15,0.15,0,0,1-.18-0.16c0-.2,0-0.45-0.07-0.7a1,1,0,0,0-1.11-.74c-0.36,0-2.62-.09-3.12-0.09-0.09,0-.11.09-0.11,0.2v1.54c0,0.66,0,2.28,0,2.85,0,1.31.65,1.6,2.69,1.6a5.36,5.36,0,0,0,1.88-.25,1.62,1.62,0,0,0,.86-1.42c0-.2.09-0.29,0.23-0.29s0.18,0.25.18,0.45a13,13,0,0,1-.27,2.12c-0.13.5-.32,0.5-1.06,0.5-1.49,0-2.69,0-3.66-.07s-1.72,0-2.3,0l-1.13,0c-0.48,0-1,0-1.38,0-0.25,0-.38-0.07-0.38-0.2s0.07-.2.32-0.2a2.93,2.93,0,0,0,.7-0.07,1,1,0,0,0,.59-1c0.09-.81.09-2.33,0.09-4.09V17.62h0Z" transform="translate(-1.3 0)"/><path class="cls-1" d="M244.35,24.44a8.52,8.52,0,0,1-2.8-6.66,8.49,8.49,0,0,1,2.64-6.19c1.63-1.49,3.77-2.39,7.14-2.39a22.25,22.25,0,0,1,3.27.23c0.86,0.11,1.58.32,2.26,0.38a0.3,0.3,0,0,1,.34.27c0,0.18-.07.45-0.11,1.24s0,2-.07,2.44-0.07.52-.27,0.52-0.23-.18-0.23-0.5a3.23,3.23,0,0,0-.88-2.08,6.74,6.74,0,0,0-4.59-1.4,5.9,5.9,0,0,0-4.25,1.4c-1.65,1.51-2.08,3.66-2.08,5.85,0,5.38,4.09,8,7.12,8,2,0,3.23-.23,4.13-1.26a3.78,3.78,0,0,0,.77-1.49c0.07-.36.11-0.45,0.29-0.45s0.2,0.16.2,0.34a21.65,21.65,0,0,1-.5,3,0.8,0.8,0,0,1-.59.66,13.07,13.07,0,0,1-4.07.52c-3.09,0-5.69-.68-7.75-2.46" transform="translate(-1.3 0)"/><path class="cls-1" d="M261.63,17.62c0-2.91,0-3.46,0-4.07a0.94,0.94,0,0,0-.86-1,3.63,3.63,0,0,0-.79-0.07c-0.2,0-.34-0.07-0.34-0.2s0.16-.18.45-0.18c1,0,2.3,0,2.71,0,0.68,0,2.48,0,3.09,0a7,7,0,0,1,3.77.81,3.35,3.35,0,0,1,1.4,2.64c0,1.42-.81,2.69-2.76,4.25,1.76,2.17,3.16,3.91,4.36,5.1a3.73,3.73,0,0,0,2.12,1.26,1.91,1.91,0,0,0,.47,0,0.23,0.23,0,0,1,.25.2c0,0.16-.14.2-0.38,0.2h-1.9a4.3,4.3,0,0,1-2.17-.38,9,9,0,0,1-2.71-2.82c-0.79-1-1.63-2.33-1.87-2.62a0.46,0.46,0,0,0-.36-0.14l-1.79,0a0.14,0.14,0,0,0-.16.16V21c0,1.78,0,3.27.11,4.09a0.89,0.89,0,0,0,.77,1,7.38,7.38,0,0,0,1,.07,0.23,0.23,0,0,1,.25.2c0,0.14-.16.2-0.41,0.2-1.15,0-2.8-.07-3.09-0.07s-1.65.07-2.44,0.07c-0.25,0-.38-0.07-0.38-0.2s0.07-.2.32-0.2a2.87,2.87,0,0,0,.7-0.07,1,1,0,0,0,.59-1c0.09-.81.09-2.33,0.09-4.09V17.62h0Zm2.53,1.49a0.3,0.3,0,0,0,.18.34,5.47,5.47,0,0,0,1.51.18,2,2,0,0,0,1.4-.32,3.25,3.25,0,0,0,1.29-2.85c0-2.71-1.85-3.41-3-3.41a7.35,7.35,0,0,0-1.17.07,0.24,0.24,0,0,0-.18.27v5.71h0Z" transform="translate(-1.3 0)"/><path class="cls-1" d="M277.12,17.62c0-2.91,0-3.46,0-4.07a0.94,0.94,0,0,0-.86-1,3.74,3.74,0,0,0-.79-0.07c-0.2,0-.34-0.07-0.34-0.2s0.16-.18.45-0.18c1,0,2.3,0,2.87,0s5,0,5.42,0a8.34,8.34,0,0,0,.84-0.11,2.43,2.43,0,0,1,.32-0.09,0.14,0.14,0,0,1,.14.18,8.49,8.49,0,0,0-.16,1.24c0,0.2-.07,1-0.11,1.26a0.34,0.34,0,0,1-.23.32c-0.14,0-.16-0.09-0.16-0.25a1.79,1.79,0,0,0-.14-0.7c-0.16-.34-0.32-0.61-1.31-0.7-0.34,0-2.71-.09-3.12-0.09a0.15,0.15,0,0,0-.14.18V18.1c0,0.11,0,.2.14,0.2,0.45,0,3,0,3.48,0a1.56,1.56,0,0,0,.95-0.29,0.8,0.8,0,0,1,.32-0.25,0.18,0.18,0,0,1,.16.2c0,0.11,0,.43-0.16,1.4,0,0.38-.09,1.15-0.09,1.29s0,0.43-.2.43a0.15,0.15,0,0,1-.18-0.16c0-.2,0-0.45-0.07-0.7a1,1,0,0,0-1.11-.74c-0.36,0-2.62-.09-3.12-0.09-0.09,0-.11.09-0.11,0.2v1.54c0,0.66,0,2.28,0,2.85,0,1.31.65,1.6,2.69,1.6a5.36,5.36,0,0,0,1.88-.25,1.62,1.62,0,0,0,.86-1.42c0-.2.09-0.29,0.23-0.29s0.18,0.25.18,0.45a13,13,0,0,1-.27,2.12c-0.14.5-.32,0.5-1.06,0.5-1.49,0-2.69,0-3.66-.07s-1.72,0-2.3,0l-1.13,0c-0.48,0-1,0-1.38,0-0.25,0-.38-0.07-0.38-0.2s0.07-.2.32-0.2a2.93,2.93,0,0,0,.7-0.07,1,1,0,0,0,.59-1c0.09-.81.09-2.33,0.09-4.09V17.62h0Z" transform="translate(-1.3 0)"/><path class="cls-1" d="M289.68,17.62c0-2.91,0-3.46,0-4.07a0.94,0.94,0,0,0-.86-1,3.61,3.61,0,0,0-.79-0.07c-0.2,0-.34-0.07-0.34-0.2s0.16-.18.45-0.18c1,0,2.3,0,2.87,0s2,0,3.23,0c2.48,0,5.83,0,8,2.19a6.73,6.73,0,0,1,1.88,4.88,7.44,7.44,0,0,1-2.17,5.35c-0.9.9-3,2.26-6.66,2.26-0.72,0-1.58-.07-2.37-0.11s-1.51-.11-2-0.11l-1.13,0c-0.47,0-1,0-1.38,0-0.25,0-.38-0.07-0.38-0.2s0.07-.2.32-0.2a2.92,2.92,0,0,0,.7-0.07,1,1,0,0,0,.59-1c0.09-.81.09-2.33,0.09-4.09V17.62h0Zm2.67,2.12c0,2,0,3.5,0,3.88a3.51,3.51,0,0,0,.23,1.36c0.25,0.36,1,.77,2.6.77a6.27,6.27,0,0,0,4.34-1.31c1.29-1.06,1.69-2.78,1.69-4.77a6.25,6.25,0,0,0-1.85-4.79,8,8,0,0,0-5.55-1.83,4.27,4.27,0,0,0-1.22.14,0.34,0.34,0,0,0-.25.38c0,0.66,0,2.24,0,3.75v2.42h0Z" transform="translate(-1.3 0)"/><path class="cls-1" d="M308.23,17.62c0-2.91,0-3.46,0-4.07a0.92,0.92,0,0,0-.68-1,2.56,2.56,0,0,0-.72-0.09c-0.2,0-.32,0-0.32-0.23s0.16-.16.47-0.16c0.75,0,2.1,0,2.67,0s1.79,0,2.55,0c0.25,0,.41,0,0.41.16s-0.11.23-.32,0.23a2.84,2.84,0,0,0-.59.07,0.86,0.86,0,0,0-.74,1c0,0.61,0,1.15,0,4.07V21c0,1.85,0,3.39.09,4.2a0.84,0.84,0,0,0,.79.9,7.44,7.44,0,0,0,1,.07,0.26,0.26,0,0,1,.32.2c0,0.14-.16.2-0.38,0.2-1.31,0-2.67-.07-3.21-0.07s-1.81.07-2.6,0.07c-0.25,0-.38-0.07-0.38-0.2s0.07-.2.32-0.2a2.93,2.93,0,0,0,.7-0.07,0.83,0.83,0,0,0,.59-0.93c0.09-.79.09-2.33,0.09-4.18V17.62h0Z" transform="translate(-1.3 0)"/><path class="cls-1" d="M320.07,13.24l-3,.07c-1.15,0-1.63.16-1.92,0.59a2.27,2.27,0,0,0-.34.65,0.25,0.25,0,0,1-.23.25c-0.14,0-.18-0.11-0.18-0.32s0.38-2.17.43-2.33,0.11-.36.23-0.36S315.46,12,316,12a18.55,18.55,0,0,0,2,.09H326a8.82,8.82,0,0,0,1.36-.09c0.32,0,.47-0.09.54-0.09s0.16,0.11.16,0.41,0,1.83,0,2.33c0,0.2-.07.32-0.18,0.32s-0.2-.09-0.23-0.38l0-.2c0-.5-0.57-1.08-2.35-1.11l-2.51,0V21c0,1.76,0,3.28.11,4.11a0.89,0.89,0,0,0,.77,1,7.32,7.32,0,0,0,1,.07,0.26,0.26,0,0,1,.32.2c0,0.14-.16.2-0.38,0.2-1.31,0-2.64-.07-3.21-0.07s-1.81.07-2.6,0.07c-0.25,0-.38-0.07-0.38-0.2s0.07-.2.32-0.2a2.81,2.81,0,0,0,.7-0.07,0.94,0.94,0,0,0,.59-1c0.09-.81.09-2.33,0.09-4.09V13.24h0Z" transform="translate(-1.3 0)"/><path class="cls-1" d="M339,16.06c0-3.43,0-4.07,0-4.79a1.11,1.11,0,0,0-1-1.29,4.57,4.57,0,0,0-.88-0.07c-0.25,0-.38,0-0.38-0.2s0.16-.2.5-0.2c1.2,0,2.62.07,3.07,0.07,1.11,0,2-.07,2.76-0.07,4.09,0,4.81,2.19,4.81,3.39,0,1.85-1.06,3-2.3,4,1.85,0.63,4.11,2.24,4.11,4.88,0,2.42-1.87,4.93-6,4.93-0.27,0-.93,0-1.58-0.07s-1.36-.07-1.69-0.07-0.75,0-1.29,0-1.11,0-1.56,0c-0.29,0-.45-0.07-0.45-0.23s0.09-.18.36-0.18a3.64,3.64,0,0,0,.81-0.09c0.45-.09.57-0.59,0.65-1.24C339,23.9,339,22.12,339,20v-4h0Zm2.71,0.38a0.2,0.2,0,0,0,.16.25,5.46,5.46,0,0,0,1.06.07,2.3,2.3,0,0,0,1.63-.43,3,3,0,0,0,.92-2.39c0-1.51-.88-3.5-2.82-3.5a3.59,3.59,0,0,0-.75,0c-0.16,0-.2.14-0.2,0.38v5.58Zm3,1.81a3.24,3.24,0,0,0-1.87-.54c-0.41,0-.63,0-1,0a0.13,0.13,0,0,0-.14.16V23.2c0,1.49.07,1.88,0.79,2.17a4.05,4.05,0,0,0,1.65.27,2.63,2.63,0,0,0,2.73-2.89,5.38,5.38,0,0,0-2.19-4.49" transform="translate(-1.3 0)"/><path class="cls-1" d="M354.65,21.73a0.15,0.15,0,0,0-.18.14l-1.06,2.6a3.47,3.47,0,0,0-.29,1.17c0,0.34.18,0.54,0.79,0.54h0.29c0.25,0,.29.09,0.29,0.2s-0.11.2-.32,0.2c-0.65,0-1.58-.07-2.21-0.07-0.2,0-1.27.07-2.3,0.07-0.25,0-.36,0-0.36-0.2a0.2,0.2,0,0,1,.23-0.2l0.59,0c0.9-.14,1.24-0.72,1.65-1.69l5.2-12a1,1,0,0,1,.59-0.77c0.29,0,.38.18,0.59,0.61,0.48,1.06,3.8,8.83,5.06,11.75,0.77,1.74,1.33,2,1.69,2.06a4.92,4.92,0,0,0,.74.07c0.18,0,.27.07,0.27,0.2s-0.11.2-.86,0.2-2.15,0-3.82,0c-0.36,0-.59,0-0.59-0.16s0-.18.25-0.2a0.3,0.3,0,0,0,.18-0.43l-1.54-3.89a0.19,0.19,0,0,0-.2-0.14h-4.68Zm4.25-1.06c0.09,0,.11,0,0.09-0.11l-1.88-4.81a0.27,0.27,0,0,0-.09-0.18,0.22,0.22,0,0,0-.11.18L355,20.54c0,0.09,0,.14.07,0.14h3.84Z" transform="translate(-1.3 0)"/><path class="cls-1" d="M369.31,24c0,1.49.29,1.94,0.68,2.08a3.4,3.4,0,0,0,1,.14c0.23,0,.34.09,0.34,0.2s-0.18.2-.45,0.2c-1.29,0-2.21-.07-2.58-0.07-0.18,0-1.13.07-2.15,0.07-0.27,0-.45,0-0.45-0.2a0.28,0.28,0,0,1,.32-0.2,4.14,4.14,0,0,0,.9-0.09c0.52-.14.59-0.66,0.61-2.33l0.18-11.38c0-.38.14-0.66,0.34-0.66a1.71,1.71,0,0,1,.86.63c0.25,0.25,3.23,3.3,6.12,6.12,1.36,1.33,4,4,4.29,4.31h0.09l-0.2-8.54c0-1.17-.2-1.51-0.68-1.69a3.3,3.3,0,0,0-1-.11c-0.25,0-.32-0.09-0.32-0.2s0.2-.18.5-0.18c1,0,2.1,0,2.53,0,0.23,0,1,0,1.94,0,0.27,0,.45,0,0.45.18s-0.11.2-.34,0.2a2,2,0,0,0-.61.07c-0.54.16-.7,0.5-0.72,1.58L380.74,26.2c0,0.43-.16.61-0.32,0.61a1.18,1.18,0,0,1-.81-0.41c-1.24-1.15-3.73-3.52-5.81-5.53s-4.27-4.41-4.65-4.74h-0.07Z" transform="translate(-1.3 0)"/><path class="cls-1" d="M389.66,18.48h0.09c0.68-.72,3.57-3.57,4.16-4.22a3.27,3.27,0,0,0,1-1.42,0.35,0.35,0,0,0-.27-0.38c-0.18,0-.27-0.09-0.27-0.2s0.11-.18.32-0.18c0.43,0,1.51,0,2.05,0s1.72,0,2.33,0c0.2,0,.34,0,0.34.18s-0.11.2-.29,0.2a3.83,3.83,0,0,0-1.15.23,6,6,0,0,0-2.1,1.42c-0.63.59-3.59,3.39-4.2,4.09,0.7,0.9,4.61,5,5.38,5.69a9.76,9.76,0,0,0,2.71,2.06,2.87,2.87,0,0,0,1.22.25,0.24,0.24,0,0,1,.27.2c0,0.14-.11.2-0.47,0.2H399a12.84,12.84,0,0,1-1.38,0,4.15,4.15,0,0,1-2.58-1.24c-0.86-.75-4.68-5.17-5.11-5.76l-0.2-.27h-0.09V21c0,1.76,0,3.27,0,4.11a0.91,0.91,0,0,0,.72,1,7.13,7.13,0,0,0,1,.07,0.25,0.25,0,0,1,.27.2c0,0.14-.16.2-0.38,0.2-1.11,0-2.53-.07-3-0.07s-1.72.07-2.51,0.07c-0.25,0-.38-0.07-0.38-0.2s0.07-.2.32-0.2a2.93,2.93,0,0,0,.7-0.07,1,1,0,0,0,.59-1c0.09-.81.09-2.33,0.09-4.09V17.62c0-2.91,0-3.46,0-4.07a0.94,0.94,0,0,0-.86-1,3.61,3.61,0,0,0-.79-0.07c-0.2,0-.34-0.07-0.34-0.2s0.16-.18.45-0.18c1,0,2.3,0,2.78,0s1.9,0,2.55,0c0.29,0,.43,0,0.43.18a0.23,0.23,0,0,1-.27.2,2.73,2.73,0,0,0-.56.07,0.86,0.86,0,0,0-.75,1c0,0.61,0,1.15,0,4.07v0.86h0Z" transform="translate(-1.3 0)"/><path class="cls-1" d="M412.59,20c0,2.89,0,4.45.47,4.86s1,0.5,2.73.5c1.2,0,2.08,0,2.64-.63a2.84,2.84,0,0,0,.59-1.35c0-.2.07-0.34,0.25-0.34s0.18,0.11.18,0.38a17.78,17.78,0,0,1-.34,2.6c-0.14.5-.25,0.61-1.42,0.61-1.63,0-2.8,0-3.82-.07s-1.83-.07-2.76-0.07c-0.25,0-.74,0-1.29,0s-1.11,0-1.56,0c-0.3,0-.45-0.07-0.45-0.23s0.09-.18.36-0.18a3.7,3.7,0,0,0,.81-0.09c0.45-.09.56-0.59,0.65-1.24,0.11-.95.11-2.73,0.11-4.81v-4c0-3.43,0-4.07,0-4.79a1.11,1.11,0,0,0-1-1.29A3.3,3.3,0,0,0,408,9.92c-0.25,0-.38,0-0.38-0.2s0.16-.2.5-0.2c1.06,0,2.48.07,3.09,0.07s2.19-.07,3.07-0.07c0.32,0,.47,0,0.47.2s-0.14.2-.41,0.2a6,6,0,0,0-.88.07c-0.61.11-.79,0.5-0.84,1.29s0,1.36,0,4.79v4h0Z" transform="translate(-1.3 0)"/><path class="cls-1" d="M423,17.62c0-2.91,0-3.46,0-4.07a0.92,0.92,0,0,0-.68-1,2.56,2.56,0,0,0-.72-0.09c-0.2,0-.32,0-0.32-0.23s0.16-.16.47-0.16c0.75,0,2.1,0,2.67,0s1.79,0,2.55,0c0.25,0,.41,0,0.41.16s-0.11.23-.32,0.23a2.84,2.84,0,0,0-.59.07,0.86,0.86,0,0,0-.74,1c0,0.61,0,1.15,0,4.07V21c0,1.85,0,3.39.09,4.2a0.84,0.84,0,0,0,.79.9,7.44,7.44,0,0,0,1,.07,0.26,0.26,0,0,1,.32.2c0,0.14-.16.2-0.38,0.2-1.31,0-2.66-.07-3.21-0.07s-1.81.07-2.6,0.07c-0.25,0-.38-0.07-0.38-0.2s0.07-.2.32-0.2a2.93,2.93,0,0,0,.7-0.07,0.83,0.83,0,0,0,.59-0.93C423,24.4,423,22.86,423,21V17.62h0Z" transform="translate(-1.3 0)"/><path class="cls-1" d="M432.92,12.22a0.5,0.5,0,0,1,.38-0.5c0.2,0,.34.09,0.61,0.61L439.25,23l5.33-10.75a0.68,0.68,0,0,1,.52-0.47,0.63,0.63,0,0,1,.45.61l1.81,11.81c0.18,1.2.36,1.72,1,1.9a4,4,0,0,0,1.13.18,0.26,0.26,0,0,1,.32.18c0,0.16-.23.23-0.52,0.23-0.5,0-3.32-.07-4.11-0.11-0.48,0-.59-0.11-0.59-0.23a0.27,0.27,0,0,1,.23-0.2,0.84,0.84,0,0,0,.09-0.81L443.77,17H443.7l-4.27,8.49c-0.45.9-.57,1.08-0.79,1.08a1.56,1.56,0,0,1-.79-1c-0.47-.88-2.05-3.82-2.28-4.36-0.16-.36-1.33-2.69-2-4h-0.07l-0.95,7.41a6.19,6.19,0,0,0-.07.9,0.6,0.6,0,0,0,.61.56,3.44,3.44,0,0,0,.7.09,0.28,0.28,0,0,1,.32.18c0,0.18-.18.23-0.47,0.23-0.84,0-1.74-.07-2.1-0.07s-1.33.07-2,.07c-0.2,0-.36,0-0.36-0.23a0.27,0.27,0,0,1,.32-0.18,3.6,3.6,0,0,0,.61,0c0.54-.07.72-0.84,0.81-1.47Z" transform="translate(-1.3 0)"/><path class="cls-1" d="M453,17.62c0-2.91,0-3.46,0-4.07a0.92,0.92,0,0,0-.68-1,2.56,2.56,0,0,0-.72-0.09c-0.2,0-.32,0-0.32-0.23s0.16-.16.47-0.16c0.75,0,2.1,0,2.67,0s1.79,0,2.55,0c0.25,0,.41,0,0.41.16s-0.11.23-.32,0.23a2.84,2.84,0,0,0-.59.07,0.86,0.86,0,0,0-.74,1c0,0.61,0,1.15,0,4.07V21c0,1.85,0,3.39.09,4.2a0.84,0.84,0,0,0,.79.9,7.45,7.45,0,0,0,1,.07,0.26,0.26,0,0,1,.32.2c0,0.14-.16.2-0.38,0.2-1.31,0-2.66-.07-3.21-0.07s-1.81.07-2.6,0.07c-0.25,0-.38-0.07-0.38-0.2s0.07-.2.32-0.2a2.93,2.93,0,0,0,.7-0.07,0.83,0.83,0,0,0,.59-0.93C453,24.4,453,22.86,453,21V17.62h0Z" transform="translate(-1.3 0)"/><path class="cls-1" d="M464.86,13.24l-3,.07c-1.15,0-1.63.16-1.92,0.59a2.27,2.27,0,0,0-.34.65,0.25,0.25,0,0,1-.23.25c-0.14,0-.18-0.11-0.18-0.32s0.38-2.17.43-2.33,0.11-.36.23-0.36,0.36,0.16.86,0.23a18.55,18.55,0,0,0,2,.09h8.06a8.82,8.82,0,0,0,1.36-.09c0.32,0,.47-0.09.54-0.09s0.16,0.11.16,0.41,0,1.83,0,2.33c0,0.2-.07.32-0.18,0.32s-0.2-.09-0.23-0.38l0-.2c0-.5-0.57-1.08-2.35-1.11l-2.51,0V21c0,1.76,0,3.28.11,4.11a0.89,0.89,0,0,0,.77,1,7.32,7.32,0,0,0,1,.07,0.26,0.26,0,0,1,.32.2c0,0.14-.16.2-0.38,0.2-1.31,0-2.64-.07-3.21-0.07s-1.81.07-2.6,0.07c-0.25,0-.38-0.07-0.38-0.2s0.07-.2.32-0.2a2.81,2.81,0,0,0,.7-0.07,0.94,0.94,0,0,0,.59-1c0.09-.81.09-2.33,0.09-4.09V13.24h0Z" transform="translate(-1.3 0)"/><path class="cls-1" d="M476.52,17.62c0-2.91,0-3.46,0-4.07a0.94,0.94,0,0,0-.86-1,3.74,3.74,0,0,0-.79-0.07c-0.2,0-.34-0.07-0.34-0.2s0.16-.18.45-0.18c1,0,2.3,0,2.87,0s5,0,5.42,0a8.34,8.34,0,0,0,.84-0.11,2.43,2.43,0,0,1,.32-0.09,0.14,0.14,0,0,1,.14.18,8.49,8.49,0,0,0-.16,1.24c0,0.2-.07,1-0.11,1.26a0.34,0.34,0,0,1-.23.32c-0.14,0-.16-0.09-0.16-0.25a1.79,1.79,0,0,0-.14-0.7c-0.16-.34-0.32-0.61-1.31-0.7-0.34,0-2.71-.09-3.12-0.09a0.15,0.15,0,0,0-.14.18V18.1c0,0.11,0,.2.14,0.2,0.45,0,3,0,3.48,0a1.56,1.56,0,0,0,.95-0.29,0.8,0.8,0,0,1,.32-0.25,0.18,0.18,0,0,1,.16.2c0,0.11,0,.43-0.16,1.4,0,0.38-.09,1.15-0.09,1.29s0,0.43-.2.43a0.15,0.15,0,0,1-.18-0.16c0-.2,0-0.45-0.07-0.7a1,1,0,0,0-1.11-.74c-0.36,0-2.62-.09-3.12-0.09-0.09,0-.11.09-0.11,0.2v1.54c0,0.66,0,2.28,0,2.85,0,1.31.65,1.6,2.69,1.6a5.36,5.36,0,0,0,1.87-.25,1.62,1.62,0,0,0,.86-1.42c0-.2.09-0.29,0.23-0.29S485,23.81,485,24a13,13,0,0,1-.27,2.12c-0.14.5-.32,0.5-1.06,0.5-1.49,0-2.69,0-3.66-.07s-1.72,0-2.3,0l-1.13,0c-0.48,0-1,0-1.38,0-0.25,0-.38-0.07-0.38-0.2s0.07-.2.32-0.2a2.93,2.93,0,0,0,.7-0.07,1,1,0,0,0,.59-1c0.09-.81.09-2.33,0.09-4.09V17.62h0Z" transform="translate(-1.3 0)"/><path class="cls-1" d="M489.08,17.62c0-2.91,0-3.46,0-4.07a0.94,0.94,0,0,0-.86-1,3.61,3.61,0,0,0-.79-0.07c-0.2,0-.34-0.07-0.34-0.2s0.16-.18.45-0.18c1,0,2.3,0,2.87,0s2,0,3.23,0c2.48,0,5.83,0,8,2.19a6.72,6.72,0,0,1,1.88,4.88,7.44,7.44,0,0,1-2.17,5.35c-0.9.9-3,2.26-6.66,2.26-0.72,0-1.58-.07-2.37-0.11s-1.51-.11-2-0.11l-1.13,0c-0.47,0-1,0-1.38,0-0.25,0-.38-0.07-0.38-0.2s0.07-.2.32-0.2a2.92,2.92,0,0,0,.7-0.07,1,1,0,0,0,.59-1c0.09-.81.09-2.33,0.09-4.09V17.62h0Zm2.67,2.12c0,2,0,3.5,0,3.88A3.51,3.51,0,0,0,492,25c0.25,0.36,1,.77,2.6.77A6.27,6.27,0,0,0,499,24.44c1.29-1.06,1.69-2.78,1.69-4.77a6.25,6.25,0,0,0-1.85-4.79,8,8,0,0,0-5.55-1.83,4.27,4.27,0,0,0-1.22.14,0.34,0.34,0,0,0-.25.38c0,0.66,0,2.24,0,3.75v2.42h0Z" transform="translate(-1.3 0)"/><path class="cls-1" d="M88.53,49.79a3.81,3.81,0,0,0-.41-1.88C88,47.61,85.58,43.66,85,42.73a5.05,5.05,0,0,0-1.22-1.33A1.72,1.72,0,0,0,83,41.11,0.15,0.15,0,0,1,82.78,41c0-.07.07-0.13,0.23-0.13,0.34,0,1.69.05,1.78,0.05s0.81-.05,1.51-0.05c0.2,0,.23.05,0.23,0.13a0.37,0.37,0,0,1-.27.16,0.36,0.36,0,0,0-.23.32,1.54,1.54,0,0,0,.23.7c0.29,0.52,3,5.15,3.3,5.67,0.34-.75,2.62-4.69,3-5.28a1.75,1.75,0,0,0,.31-0.92,0.44,0.44,0,0,0-.29-0.5A0.3,0.3,0,0,1,92.3,41c0-.07.11-0.11,0.29-0.11,0.47,0,1,.05,1.18.05s1.4-.05,1.74-0.05a0.2,0.2,0,0,1,.23.11c0,0.09-.09.14-0.23,0.14a1.7,1.7,0,0,0-.82.25,3.42,3.42,0,0,0-1,.92A57.18,57.18,0,0,0,90.31,48,4.3,4.3,0,0,0,90,49.78v1.54c0,0.29,0,1,.05,1.8a0.88,0.88,0,0,0,.74,1,8.11,8.11,0,0,0,.81.07,0.12,0.12,0,0,1,.14.11c0,0.09-.09.14-0.29,0.14-1,0-2.12-.05-2.21-0.05s-1.22.05-1.76,0.05c-0.2,0-.29,0-0.29-0.14a0.12,0.12,0,0,1,.14-0.11,2.83,2.83,0,0,0,.54-0.07,0.93,0.93,0,0,0,.56-1c0.05-.76.05-1.51,0.05-1.8V49.79h0Z" transform="translate(-1.3 0)"/><path class="cls-1" d="M106.18,40.61c4,0,7.05,2.55,7.05,6.73a7,7,0,0,1-7.16,7.34c-4.92,0-7-3.83-7-7.06a7,7,0,0,1,7.07-7M106.55,54c1.61,0,5-.93,5-6.16,0-4.31-2.62-6.62-5.46-6.62-3,0-5.24,2-5.24,5.91,0,4.18,2.51,6.88,5.74,6.88" transform="translate(-1.3 0)"/><path class="cls-1" d="M119.76,46.07c0-2.8,0-3.3,0-3.88a0.88,0.88,0,0,0-.77-1,3.27,3.27,0,0,0-.61-0.05A0.13,0.13,0,0,1,118.2,41c0-.11.09-0.14,0.29-0.14,0.81,0,1.9.05,2.07,0.05s1.24-.05,1.78-0.05c0.2,0,.29,0,0.29.14a0.12,0.12,0,0,1-.14.11,2.66,2.66,0,0,0-.45.05c-0.49.07-.63,0.39-0.67,1s0,1.08,0,3.88v2.51c0,2.59.57,3.7,1.35,4.44a3.51,3.51,0,0,0,2.71,1,3.77,3.77,0,0,0,2.82-1.29c0.82-1,1-2.55,1-4.4V46.07c0-2.8,0-3.3,0-3.88a0.88,0.88,0,0,0-.77-1,3.27,3.27,0,0,0-.61-0.05,0.13,0.13,0,0,1-.14-0.11c0-.11.09-0.14,0.29-0.14,0.81,0,1.79.05,1.9,0.05s1-.05,1.51-0.05c0.2,0,.29,0,0.29.14a0.12,0.12,0,0,1-.14.11,2.66,2.66,0,0,0-.45.05,0.87,0.87,0,0,0-.66,1c0,0.58,0,1.08,0,3.88V48c0,1.94-.22,4.09-1.65,5.37a5.26,5.26,0,0,1-3.7,1.33,5.51,5.51,0,0,1-3.7-1.27c-0.88-.84-1.56-2.1-1.56-4.72V46.07h0Z" transform="translate(-1.3 0)"/><path class="cls-1" d="M138.94,46.07c0-2.8,0-3.3,0-3.88a0.88,0.88,0,0,0-.77-1,3.45,3.45,0,0,0-.61-0.05,0.13,0.13,0,0,1-.14-0.11c0-.11.09-0.14,0.29-0.14,0.81,0,1.94.05,2,.05s1.56-.05,2.12-0.05a5.53,5.53,0,0,1,3.29.79,3.14,3.14,0,0,1,1.24,2.44,5.54,5.54,0,0,1-2.17,4.15c1.47,1.88,2.69,3.48,3.73,4.6a3.71,3.71,0,0,0,2.19,1.29,4.28,4.28,0,0,0,.7.05,0.15,0.15,0,0,1,.16.11c0,0.11-.11.14-0.43,0.14h-1.27a3.65,3.65,0,0,1-1.92-.34,9.36,9.36,0,0,1-2.42-2.64c-0.76-1-1.6-2.19-2-2.66a0.29,0.29,0,0,0-.23-0.11l-2.21,0a0.12,0.12,0,0,0-.12.14v0.43c0,1.72,0,3.14.09,3.9a0.87,0.87,0,0,0,.7,1,7.53,7.53,0,0,0,.81.07,0.12,0.12,0,0,1,.14.11c0,0.09-.09.14-0.29,0.14-1,0-2.12-.05-2.21-0.05s-1.15.05-1.69,0.05c-0.2,0-.29,0-0.29-0.14a0.12,0.12,0,0,1,.14-0.11,2.68,2.68,0,0,0,.54-0.07,1,1,0,0,0,.52-1c0.09-.75.09-2.17,0.09-3.9V46.07h0Zm1.44,1.56a0.23,0.23,0,0,0,.13.22,4.94,4.94,0,0,0,1.89.29,2.33,2.33,0,0,0,1.35-.34,3.28,3.28,0,0,0,1.1-2.76c0-2.24-1.18-3.59-3.11-3.59a5.47,5.47,0,0,0-1.2.11,0.22,0.22,0,0,0-.14.22v5.87Z" transform="translate(-1.3 0)"/><path class="cls-1" d="M164.77,46.07c0-2.8,0-3.3,0-3.88a0.88,0.88,0,0,0-.77-1,3.27,3.27,0,0,0-.61-0.05,0.13,0.13,0,0,1-.14-0.11c0-.11.09-0.14,0.29-0.14,0.81,0,1.88.05,2,.05,0.39,0,1.44-.05,2.26-0.05,2.24,0,3.05.76,3.34,1A3.12,3.12,0,0,1,172,44a4.17,4.17,0,0,1-4.42,4.27,2.64,2.64,0,0,1-.38,0,0.17,0.17,0,0,1-.2-0.12c0-.14.11-0.16,0.48-0.16a3,3,0,0,0,3.11-2.93,3.8,3.8,0,0,0-1-2.76,3.12,3.12,0,0,0-2.46-.9,2.2,2.2,0,0,0-.77.11,0.32,0.32,0,0,0-.14.34v7.38c0,1.72,0,3.14.09,3.9a0.87,0.87,0,0,0,.7,1,8.06,8.06,0,0,0,.81.07,0.12,0.12,0,0,1,.14.11c0,0.09-.09.14-0.29,0.14-1,0-2.12-.05-2.21-0.05s-1.18.05-1.72,0.05c-0.2,0-.29,0-0.29-0.14a0.12,0.12,0,0,1,.14-0.11,2.83,2.83,0,0,0,.54-0.07,1,1,0,0,0,.52-1c0.09-.76.09-2.17,0.09-3.9V46.07h0Z" transform="translate(-1.3 0)"/><path class="cls-1" d="M181.3,41.31c0.21-.59.29-0.7,0.39-0.7s0.18,0.09.4,0.65,3.09,8.1,4.18,10.83c0.65,1.6,1.17,1.89,1.54,2a2.3,2.3,0,0,0,.72.11c0.11,0,.18,0,0.18.11s-0.16.14-.36,0.14-1.58,0-2.82,0c-0.34,0-.54,0-0.54-0.13a0.13,0.13,0,0,1,.13-0.12,0.34,0.34,0,0,0,.11-0.49l-1.67-4.42a0.16,0.16,0,0,0-.16-0.11h-3.86a0.19,0.19,0,0,0-.18.14l-1.08,3.18a3.78,3.78,0,0,0-.25,1.2,0.61,0.61,0,0,0,.68.52h0.18c0.13,0,.18,0,0.18.11s-0.11.14-.27,0.14c-0.43,0-1.2-.05-1.4-0.05s-1.19.05-2,.05c-0.23,0-.34,0-0.34-0.14a0.13,0.13,0,0,1,.16-0.11l0.52,0c0.82-.11,1.18-0.79,1.51-1.69Zm1.87,7.18c0.09,0,.09-0.05.07-0.13l-1.71-4.85c-0.09-.27-0.18-0.27-0.27,0l-1.58,4.85c0,0.09,0,.13.05,0.13h3.43Z" transform="translate(-1.3 0)"/><path class="cls-1" d="M194.51,46.07c0-2.8,0-3.3,0-3.88a0.88,0.88,0,0,0-.77-1,3.45,3.45,0,0,0-.61-0.05A0.13,0.13,0,0,1,193,41c0-.11.09-0.14,0.29-0.14,0.81,0,1.94.05,2,.05s1.56-.05,2.12-0.05a5.53,5.53,0,0,1,3.29.79,3.14,3.14,0,0,1,1.24,2.44,5.54,5.54,0,0,1-2.17,4.15c1.47,1.88,2.69,3.48,3.73,4.6a3.71,3.71,0,0,0,2.19,1.29,4.28,4.28,0,0,0,.7.05,0.15,0.15,0,0,1,.16.11c0,0.11-.11.14-0.43,0.14h-1.27a3.65,3.65,0,0,1-1.92-.34,9.36,9.36,0,0,1-2.42-2.64c-0.76-1-1.6-2.19-2-2.66a0.29,0.29,0,0,0-.23-0.11l-2.21,0a0.12,0.12,0,0,0-.12.14v0.43c0,1.72,0,3.14.09,3.9a0.87,0.87,0,0,0,.7,1,7.53,7.53,0,0,0,.81.07,0.12,0.12,0,0,1,.14.11c0,0.09-.09.14-0.29,0.14-1,0-2.12-.05-2.21-0.05s-1.15.05-1.69,0.05c-0.2,0-.29,0-0.29-0.14a0.12,0.12,0,0,1,.14-0.11,2.68,2.68,0,0,0,.54-0.07,1,1,0,0,0,.52-1c0.09-.75.09-2.17,0.09-3.9V46.07h0Zm1.44,1.56a0.23,0.23,0,0,0,.13.22,4.94,4.94,0,0,0,1.89.29,2.33,2.33,0,0,0,1.35-.34A3.28,3.28,0,0,0,200.4,45c0-2.24-1.18-3.59-3.11-3.59a5.47,5.47,0,0,0-1.2.11,0.22,0.22,0,0,0-.14.22v5.87Z" transform="translate(-1.3 0)"/><path class="cls-1" d="M214.21,49.23c0,1.72,0,3.14.09,3.9a0.87,0.87,0,0,0,.7,1,7.55,7.55,0,0,0,.81.07,0.12,0.12,0,0,1,.14.11c0,0.09-.09.14-0.29,0.14-1,0-2.12-.05-2.21-0.05s-1.22.05-1.76,0.05c-0.2,0-.29,0-0.29-0.14a0.12,0.12,0,0,1,.14-0.11,2.68,2.68,0,0,0,.54-0.07,1,1,0,0,0,.52-1c0.09-.75.09-2.17,0.09-3.9V41.64l-2.66,0c-1.11,0-1.54.14-1.83,0.57a3.21,3.21,0,0,0-.31.56,0.2,0.2,0,0,1-.18.18c-0.05,0-.09-0.05-0.09-0.16S208,41.1,208,41a0.61,0.61,0,0,1,.18-0.34,3.35,3.35,0,0,0,.79.22c0.52,0.05,1.2.09,1.42,0.09h6.73a7.07,7.07,0,0,0,1.27-.09c0.27,0,.43-0.09.5-0.09S219,40.85,219,41c0,0.54-.05,1.78-0.05,2s-0.05.23-.13,0.23-0.12-.05-0.14-0.31l0-.2c-0.05-.54-0.49-1-2.21-1l-2.26,0v7.59h0Z" transform="translate(-1.3 0)"/><path class="cls-1" d="M226.5,52c0,1.47.21,1.94,0.7,2.08a3.91,3.91,0,0,0,.9.11,0.12,0.12,0,0,1,.14.11c0,0.11-.11.14-0.32,0.14-1,0-1.74-.05-1.9-0.05s-0.92.05-1.72,0.05c-0.18,0-.29,0-0.29-0.14a0.12,0.12,0,0,1,.14-0.11,2.6,2.6,0,0,0,.74-0.11c0.45-.13.54-0.65,0.54-2.28l0-10.29c0-.7.05-0.9,0.2-0.9a2.19,2.19,0,0,1,.63.57c0.27,0.31,2.95,3.19,5.71,6.16,1.78,1.9,3.73,4.09,4.31,4.69l-0.2-9.12c0-1.17-.14-1.56-0.7-1.71a4.86,4.86,0,0,0-.88-0.09c-0.12,0-.14-0.05-0.14-0.12s0.14-.13.36-0.13c0.81,0,1.67.05,1.87,0.05s0.79-.05,1.53-0.05c0.2,0,.32,0,0.32.13a0.16,0.16,0,0,1-.2.13,1.58,1.58,0,0,0-.43.05c-0.59.13-.66,0.52-0.66,1.6l0,10.52c0,1.18,0,1.27-.16,1.27a4,4,0,0,1-1.31-1.15c-0.2-.18-2.78-2.82-4.69-4.87-2.08-2.24-4.11-4.51-4.69-5.15Z" transform="translate(-1.3 0)"/><path class="cls-1" d="M246.25,46.07c0-2.8,0-3.3,0-3.88a0.88,0.88,0,0,0-.77-1,3.27,3.27,0,0,0-.61-0.05,0.13,0.13,0,0,1-.14-0.11c0-.11.09-0.14,0.29-0.14,0.41,0,.9,0,1.29,0l0.74,0c0.13,0,3.7,0,4.11,0a4.78,4.78,0,0,0,.77-0.09,1.37,1.37,0,0,1,.25-0.09c0.05,0,.07.07,0.07,0.16s-0.09.34-.14,0.84c0,0.18-.05,1-0.09,1.18a0.21,0.21,0,0,1-.13.2c-0.11,0-.14-0.09-0.14-0.23a1.93,1.93,0,0,0-.11-0.65c-0.12-.29-0.3-0.5-1.27-0.61-0.3,0-2.26-.05-2.46-0.05s-0.11.05-.11,0.18v5c0,0.13,0,.18.11,0.18s2.44,0,2.85,0a1.21,1.21,0,0,0,.84-0.25,0.54,0.54,0,0,1,.27-0.23c0.05,0,.09,0,0.09.14s-0.09.41-.14,1c0,0.36-.07,1-0.07,1.15s0,0.34-.13.34a0.13,0.13,0,0,1-.12-0.16,1.82,1.82,0,0,0-.07-0.59,0.89,0.89,0,0,0-.93-0.63c-0.49-.05-2.26-0.09-2.57-0.09a0.11,0.11,0,0,0-.12.13v1.58c0,0.61,0,2.69,0,3.07,0.05,1.24.32,1.47,2.08,1.47a5.16,5.16,0,0,0,1.72-.2,1.43,1.43,0,0,0,.81-1.29c0-.2.07-0.27,0.16-0.27s0.11,0.14.11,0.27a17.23,17.23,0,0,1-.23,1.74c-0.12.47-.27,0.47-1,0.47-1.35,0-2.34,0-3-.05s-1.13-.05-1.4-0.05l-0.72,0c-0.36,0-.77,0-1,0s-0.29,0-.29-0.14a0.12,0.12,0,0,1,.14-0.11,2.83,2.83,0,0,0,.54-0.07,1,1,0,0,0,.52-1c0.09-.76.09-2.17,0.09-3.9V46.07h0Z" transform="translate(-1.3 0)"/><path class="cls-1" d="M260.43,46.07c0-2.8,0-3.3,0-3.88a0.88,0.88,0,0,0-.77-1,3.45,3.45,0,0,0-.61-0.05,0.13,0.13,0,0,1-.14-0.11c0-.11.09-0.14,0.29-0.14,0.81,0,1.94.05,2,.05s1.56-.05,2.12-0.05a5.53,5.53,0,0,1,3.29.79,3.14,3.14,0,0,1,1.24,2.44,5.54,5.54,0,0,1-2.17,4.15c1.47,1.88,2.69,3.48,3.73,4.6a3.71,3.71,0,0,0,2.19,1.29,4.28,4.28,0,0,0,.7.05,0.15,0.15,0,0,1,.16.11c0,0.11-.11.14-0.43,0.14h-1.27a3.65,3.65,0,0,1-1.92-.34,9.36,9.36,0,0,1-2.42-2.64c-0.76-1-1.6-2.19-2-2.66a0.29,0.29,0,0,0-.23-0.11l-2.21,0a0.12,0.12,0,0,0-.12.14v0.43c0,1.72,0,3.14.09,3.9a0.87,0.87,0,0,0,.7,1,7.53,7.53,0,0,0,.81.07,0.12,0.12,0,0,1,.14.11c0,0.09-.09.14-0.29,0.14-1,0-2.12-.05-2.21-0.05s-1.15.05-1.69,0.05c-0.2,0-.29,0-0.29-0.14a0.12,0.12,0,0,1,.14-0.11,2.69,2.69,0,0,0,.54-0.07,1,1,0,0,0,.52-1c0.09-.75.09-2.17,0.09-3.9V46.07h0Zm1.44,1.56a0.23,0.23,0,0,0,.13.22,4.94,4.94,0,0,0,1.89.29,2.33,2.33,0,0,0,1.35-.34,3.28,3.28,0,0,0,1.1-2.76c0-2.24-1.18-3.59-3.11-3.59a5.47,5.47,0,0,0-1.2.11,0.22,0.22,0,0,0-.14.22v5.87Z" transform="translate(-1.3 0)"/><path class="cls-1" d="M287.77,49.23c0,1.72,0,3.14.09,3.9a0.87,0.87,0,0,0,.7,1,7.55,7.55,0,0,0,.81.07,0.12,0.12,0,0,1,.14.11c0,0.09-.09.14-0.29,0.14-1,0-2.12-.05-2.21-0.05s-1.22.05-1.76,0.05c-0.2,0-.29,0-0.29-0.14a0.12,0.12,0,0,1,.14-0.11,2.68,2.68,0,0,0,.54-0.07,1,1,0,0,0,.52-1c0.09-.75.09-2.17,0.09-3.9V46.07c0-2.8,0-3.3,0-3.88a0.89,0.89,0,0,0-.61-1,2.4,2.4,0,0,0-.56-0.07,0.13,0.13,0,0,1-.14-0.11c0-.11.09-0.14,0.29-0.14,0.59,0,1.72.05,1.81,0.05s1.22-.05,1.76-0.05c0.2,0,.29,0,0.29.14a0.13,0.13,0,0,1-.14.11,2.74,2.74,0,0,0-.45.05,0.86,0.86,0,0,0-.67,1c0,0.57,0,1.08,0,3.88v3.16h0Z" transform="translate(-1.3 0)"/><path class="cls-1" d="M297.88,52c0,1.47.21,1.94,0.7,2.08a3.91,3.91,0,0,0,.9.11,0.12,0.12,0,0,1,.14.11c0,0.11-.11.14-0.32,0.14-1,0-1.74-.05-1.9-0.05s-0.92.05-1.72,0.05c-0.18,0-.29,0-0.29-0.14a0.12,0.12,0,0,1,.14-0.11,2.6,2.6,0,0,0,.74-0.11c0.45-.13.54-0.65,0.54-2.28l0-10.29c0-.7.05-0.9,0.2-0.9a2.19,2.19,0,0,1,.63.57c0.27,0.31,2.95,3.19,5.71,6.16,1.78,1.9,3.73,4.09,4.31,4.69l-0.2-9.12c0-1.17-.14-1.56-0.7-1.71a4.86,4.86,0,0,0-.88-0.09c-0.12,0-.14-0.05-0.14-0.12s0.14-.13.36-0.13c0.81,0,1.67.05,1.87,0.05s0.79-.05,1.53-0.05c0.2,0,.32,0,0.32.13a0.16,0.16,0,0,1-.2.13,1.57,1.57,0,0,0-.43.05c-0.59.13-.67,0.52-0.67,1.6l0,10.52c0,1.18,0,1.27-.16,1.27A4,4,0,0,1,307,53.41c-0.2-.18-2.78-2.82-4.69-4.87-2.08-2.24-4.11-4.51-4.69-5.15Z" transform="translate(-1.3 0)"/><path class="cls-1" d="M326.69,46.07c0-2.8,0-3.3,0-3.88a0.88,0.88,0,0,0-.77-1,3.27,3.27,0,0,0-.61-0.05,0.13,0.13,0,0,1-.14-0.11c0-.11.09-0.14,0.29-0.14,0.81,0,1.94.05,2,.05s1.35-.05,2.42-0.05c1.78,0,5.06-.16,7.2,2a6.42,6.42,0,0,1,1.74,4.56,7.34,7.34,0,0,1-1.94,5.06,7.13,7.13,0,0,1-5.44,2.06c-0.77,0-1.72-.05-2.49-0.11l-1.49-.11-0.72,0c-0.36,0-.77,0-1,0s-0.29,0-.29-0.14a0.12,0.12,0,0,1,.14-0.11,2.83,2.83,0,0,0,.54-0.07,1,1,0,0,0,.52-1c0.09-.76.09-2.17,0.09-3.9V46.07h0ZM328.2,48c0,1.9,0,3.55,0,3.9a3.9,3.9,0,0,0,.2,1.36c0.23,0.34.93,0.72,3.05,0.72a6,6,0,0,0,4.27-1.67A6.28,6.28,0,0,0,337.19,48a6.42,6.42,0,0,0-1.72-4.52c-1.69-1.78-3.73-2-5.87-2a4.78,4.78,0,0,0-1.17.13,0.32,0.32,0,0,0-.22.36c0,0.61,0,2.44,0,3.82V48h0Z" transform="translate(-1.3 0)"/><path class="cls-1" d="M346.2,46.07c0-2.8,0-3.3,0-3.88a0.88,0.88,0,0,0-.77-1,3.27,3.27,0,0,0-.61-0.05,0.13,0.13,0,0,1-.14-0.11c0-.11.09-0.14,0.29-0.14,0.41,0,.9,0,1.29,0l0.74,0c0.13,0,3.7,0,4.11,0a4.78,4.78,0,0,0,.77-0.09,1.37,1.37,0,0,1,.25-0.09c0.05,0,.07.07,0.07,0.16s-0.09.34-.14,0.84c0,0.18-.05,1-0.09,1.18a0.21,0.21,0,0,1-.13.2c-0.11,0-.14-0.09-0.14-0.23a1.93,1.93,0,0,0-.11-0.65c-0.12-.29-0.3-0.5-1.27-0.61-0.3,0-2.26-.05-2.46-0.05s-0.11.05-.11,0.18v5c0,0.13,0,.18.11,0.18s2.44,0,2.86,0a1.21,1.21,0,0,0,.84-0.25,0.54,0.54,0,0,1,.27-0.23c0.05,0,.09,0,0.09.14s-0.09.41-.14,1c0,0.36-.07,1-0.07,1.15s0,0.34-.13.34a0.13,0.13,0,0,1-.12-0.16,1.82,1.82,0,0,0-.07-0.59,0.89,0.89,0,0,0-.93-0.63c-0.48-.05-2.26-0.09-2.57-0.09a0.11,0.11,0,0,0-.12.13v1.58c0,0.61,0,2.69,0,3.07,0.05,1.24.32,1.47,2.08,1.47a5.16,5.16,0,0,0,1.72-.2,1.43,1.43,0,0,0,.81-1.29c0-.2.07-0.27,0.16-0.27s0.11,0.14.11,0.27a17.23,17.23,0,0,1-.23,1.74c-0.12.47-.27,0.47-1,0.47-1.35,0-2.33,0-3-.05s-1.13-.05-1.4-0.05l-0.72,0c-0.36,0-.77,0-1,0s-0.29,0-.29-0.14a0.12,0.12,0,0,1,.14-0.11,2.85,2.85,0,0,0,.54-0.07,1,1,0,0,0,.52-1c0.09-.76.09-2.17,0.09-3.9V46.07h0Z" transform="translate(-1.3 0)"/><path class="cls-1" d="M364.73,52.25c1-2.4,3.45-8.67,3.84-10a2.58,2.58,0,0,0,.16-0.68,0.44,0.44,0,0,0-.23-0.41,2.27,2.27,0,0,0-.68-0.07c-0.11,0-.2,0-0.2-0.11s0.11-.14.39-0.14c0.72,0,1.55.05,1.76,0.05s0.88-.05,1.4-0.05c0.2,0,.3,0,0.3.13s-0.07.13-.21,0.13a1.63,1.63,0,0,0-.86.22,3.45,3.45,0,0,0-1,1.69c-0.2.5-1.1,2.66-2,4.87-1.1,2.62-1.9,4.56-2.32,5.44-0.5,1.08-.57,1.37-0.75,1.37s-0.31-.25-0.65-1.11l-4.4-11A1.72,1.72,0,0,0,358,41.19a2.78,2.78,0,0,0-.68-0.07,0.12,0.12,0,0,1-.14-0.12c0-.11.18-0.12,0.47-0.12,0.86,0,1.89.05,2.1,0.05s1-.05,1.67-0.05c0.32,0,.48,0,0.48.13s-0.05.13-.18,0.13a2.12,2.12,0,0,0-.68.09,0.36,0.36,0,0,0-.23.36,6.87,6.87,0,0,0,.48,1.49Z" transform="translate(-1.3 0)"/><path class="cls-1" d="M377.38,46.07c0-2.8,0-3.3,0-3.88a0.88,0.88,0,0,0-.77-1,3.27,3.27,0,0,0-.61-0.05,0.13,0.13,0,0,1-.14-0.11c0-.11.09-0.14,0.29-0.14,0.41,0,.9,0,1.29,0l0.74,0c0.13,0,3.7,0,4.11,0a4.78,4.78,0,0,0,.77-0.09,1.37,1.37,0,0,1,.25-0.09c0.05,0,.07.07,0.07,0.16s-0.09.34-.14,0.84c0,0.18-.05,1-0.09,1.18a0.21,0.21,0,0,1-.13.2c-0.11,0-.14-0.09-0.14-0.23a1.93,1.93,0,0,0-.11-0.65c-0.12-.29-0.3-0.5-1.27-0.61-0.3,0-2.26-.05-2.46-0.05s-0.11.05-.11,0.18v5c0,0.13,0,.18.11,0.18s2.44,0,2.86,0a1.21,1.21,0,0,0,.84-0.25,0.54,0.54,0,0,1,.27-0.23c0.05,0,.09,0,0.09.14s-0.09.41-.14,1c0,0.36-.07,1-0.07,1.15s0,0.34-.13.34a0.13,0.13,0,0,1-.12-0.16,1.82,1.82,0,0,0-.07-0.59,0.89,0.89,0,0,0-.93-0.63c-0.48-.05-2.26-0.09-2.57-0.09a0.11,0.11,0,0,0-.12.13v1.58c0,0.61,0,2.69,0,3.07,0.05,1.24.32,1.47,2.08,1.47a5.16,5.16,0,0,0,1.72-.2,1.43,1.43,0,0,0,.81-1.29c0-.2.07-0.27,0.16-0.27s0.11,0.14.11,0.27a17.23,17.23,0,0,1-.23,1.74c-0.12.47-.27,0.47-1,0.47-1.35,0-2.33,0-3-.05s-1.13-.05-1.4-0.05l-0.72,0c-0.36,0-.77,0-1,0s-0.29,0-.29-0.14a0.12,0.12,0,0,1,.14-0.11,2.85,2.85,0,0,0,.54-0.07,1,1,0,0,0,.52-1c0.09-.76.09-2.17,0.09-3.9V46.07h0Z" transform="translate(-1.3 0)"/><path class="cls-1" d="M393.07,49.27c0,2.64.07,3.79,0.39,4.11s0.76,0.41,2.15.41a2.73,2.73,0,0,0,2.17-.54,2.48,2.48,0,0,0,.47-1.08c0-.14.05-0.23,0.16-0.23s0.11,0.07.11,0.27a11.34,11.34,0,0,1-.27,1.8c-0.12.41-.18,0.48-1.13,0.48-1.29,0-2.23,0-3-.05s-1.31-.05-1.83-0.05l-0.74,0-1,0c-0.2,0-.29,0-0.29-0.14a0.12,0.12,0,0,1,.14-0.11,2.83,2.83,0,0,0,.54-0.07,1,1,0,0,0,.52-1c0.09-.76.09-2.17,0.09-3.9V46.07c0-2.8,0-3.3,0-3.88a0.88,0.88,0,0,0-.77-1,3.27,3.27,0,0,0-.61-0.05A0.13,0.13,0,0,1,390,41c0-.11.09-0.14,0.29-0.14,0.81,0,1.94.05,2,.05s1.4-.05,1.94-0.05c0.2,0,.29,0,0.29.14a0.12,0.12,0,0,1-.14.11,4.21,4.21,0,0,0-.59.05,0.85,0.85,0,0,0-.7,1c0,0.58,0,1.08,0,3.88v3.19h0Z" transform="translate(-1.3 0)"/><path class="cls-1" d="M410,40.61c4,0,7.05,2.55,7.05,6.73a7,7,0,0,1-7.16,7.34c-4.92,0-7-3.83-7-7.06a7,7,0,0,1,7.07-7M410.4,54c1.61,0,5-.93,5-6.16,0-4.31-2.62-6.62-5.46-6.62-3,0-5.24,2-5.24,5.91,0,4.18,2.51,6.88,5.75,6.88" transform="translate(-1.3 0)"/><path class="cls-1" d="M424.11,46.07c0-2.8,0-3.3,0-3.88a0.88,0.88,0,0,0-.77-1,3.27,3.27,0,0,0-.61-0.05,0.13,0.13,0,0,1-.14-0.11c0-.11.09-0.14,0.29-0.14,0.81,0,1.89.05,2,.05,0.39,0,1.44-.05,2.26-0.05,2.24,0,3.05.76,3.34,1a3.12,3.12,0,0,1,.9,2.14,4.17,4.17,0,0,1-4.42,4.27,2.64,2.64,0,0,1-.38,0,0.17,0.17,0,0,1-.2-0.12c0-.14.11-0.16,0.48-0.16A3,3,0,0,0,430,45.06a3.8,3.8,0,0,0-1-2.76,3.12,3.12,0,0,0-2.46-.9,2.2,2.2,0,0,0-.77.11,0.32,0.32,0,0,0-.14.34v7.38c0,1.72,0,3.14.09,3.9a0.87,0.87,0,0,0,.7,1c0.25,0,.65.07,0.81,0.07a0.12,0.12,0,0,1,.14.11c0,0.09-.09.14-0.29,0.14-1,0-2.12-.05-2.21-0.05s-1.18.05-1.72,0.05c-0.2,0-.29,0-0.29-0.14a0.12,0.12,0,0,1,.14-0.11,2.83,2.83,0,0,0,.54-0.07,1,1,0,0,0,.52-1c0.09-.76.09-2.17,0.09-3.9V46.07h0Z" transform="translate(-1.3 0)"/><path class="cls-1" d="M452.22,52.14c0.07,0.65.2,1.65,1,1.9a3.88,3.88,0,0,0,1.17.16c0.09,0,.14,0,0.14.09s-0.16.16-.38,0.16c-0.4,0-2.33,0-3-.07-0.41,0-.5-0.09-0.5-0.18a0.12,0.12,0,0,1,.13-0.12,0.82,0.82,0,0,0,.07-0.65L450,44.11h-0.05l-4.4,9.34c-0.38.79-.43,1-0.59,1a1.41,1.41,0,0,1-.56-0.83c-0.47-.88-2-4-2.1-4.17s-2.17-4.63-2.37-5.12h-0.07l-0.72,8.33c0,0.29,0,.61,0,0.92a0.57,0.57,0,0,0,.47.56,3.3,3.3,0,0,0,.68.09,0.13,0.13,0,0,1,.14.09c0,0.13-.11.16-0.32,0.16-0.67,0-1.53-.05-1.67-0.05s-1,.05-1.51.05c-0.18,0-.31,0-0.31-0.16a0.16,0.16,0,0,1,.18-0.09,2.29,2.29,0,0,0,.54-0.05c0.59-.11.65-0.81,0.72-1.49l1.29-11.7a0.29,0.29,0,0,1,.2-0.32,0.33,0.33,0,0,1,.27.27l5.49,11.29,5.28-11.27a0.37,0.37,0,0,1,.27-0.29c0.13,0,.18.14,0.21,0.48Z" transform="translate(-1.3 0)"/><path class="cls-1" d="M460.95,46.07c0-2.8,0-3.3,0-3.88a0.88,0.88,0,0,0-.77-1,3.27,3.27,0,0,0-.61-0.05,0.13,0.13,0,0,1-.14-0.11c0-.11.09-0.14,0.29-0.14,0.41,0,.9,0,1.29,0l0.74,0c0.13,0,3.7,0,4.11,0a4.78,4.78,0,0,0,.77-0.09,1.37,1.37,0,0,1,.25-0.09c0.05,0,.07.07,0.07,0.16s-0.09.34-.14,0.84c0,0.18-.05,1-0.09,1.18a0.21,0.21,0,0,1-.13.2c-0.11,0-.14-0.09-0.14-0.23a2,2,0,0,0-.11-0.65c-0.13-.29-0.31-0.5-1.27-0.61-0.3,0-2.26-.05-2.46-0.05s-0.11.05-.11,0.18v5c0,0.13,0,.18.11,0.18s2.44,0,2.86,0a1.21,1.21,0,0,0,.84-0.25,0.54,0.54,0,0,1,.27-0.23c0.05,0,.09,0,0.09.14s-0.09.41-.14,1c0,0.36-.07,1-0.07,1.15s0,0.34-.13.34a0.13,0.13,0,0,1-.12-0.16,1.82,1.82,0,0,0-.07-0.59,0.89,0.89,0,0,0-.93-0.63c-0.48-.05-2.26-0.09-2.57-0.09a0.11,0.11,0,0,0-.12.13v1.58c0,0.61,0,2.69,0,3.07,0.05,1.24.32,1.47,2.08,1.47a5.16,5.16,0,0,0,1.72-.2,1.43,1.43,0,0,0,.81-1.29c0-.2.07-0.27,0.16-0.27s0.11,0.14.11,0.27a17.48,17.48,0,0,1-.23,1.74c-0.13.47-.27,0.47-1,0.47-1.35,0-2.33,0-3-.05s-1.13-.05-1.4-0.05l-0.72,0c-0.36,0-.77,0-1,0s-0.29,0-.29-0.14a0.12,0.12,0,0,1,.14-0.11,2.85,2.85,0,0,0,.54-0.07,1,1,0,0,0,.52-1c0.09-.76.09-2.17,0.09-3.9V46.07h0Z" transform="translate(-1.3 0)"/><path class="cls-1" d="M475.61,52c0,1.47.21,1.94,0.7,2.08a3.91,3.91,0,0,0,.9.11,0.12,0.12,0,0,1,.14.11c0,0.11-.11.14-0.32,0.14-1,0-1.74-.05-1.9-0.05s-0.92.05-1.72,0.05c-0.18,0-.29,0-0.29-0.14a0.12,0.12,0,0,1,.14-0.11,2.6,2.6,0,0,0,.74-0.11c0.45-.13.54-0.65,0.54-2.28l0-10.29c0-.7.05-0.9,0.2-0.9a2.19,2.19,0,0,1,.63.57c0.27,0.31,2.95,3.19,5.71,6.16,1.78,1.9,3.73,4.09,4.31,4.69l-0.2-9.12c0-1.17-.14-1.56-0.7-1.71a4.86,4.86,0,0,0-.88-0.09c-0.12,0-.14-0.05-0.14-0.12s0.14-.13.36-0.13c0.81,0,1.67.05,1.87,0.05s0.79-.05,1.53-0.05c0.2,0,.32,0,0.32.13a0.16,0.16,0,0,1-.2.13,1.58,1.58,0,0,0-.43.05c-0.59.13-.67,0.52-0.67,1.6l0,10.52c0,1.18,0,1.27-.16,1.27a4,4,0,0,1-1.31-1.15c-0.2-.18-2.78-2.82-4.69-4.87C478,46.3,476,44,475.38,43.4Z" transform="translate(-1.3 0)"/><path class="cls-1" d="M499.18,49.23c0,1.72,0,3.14.09,3.9a0.87,0.87,0,0,0,.7,1,7.55,7.55,0,0,0,.81.07,0.12,0.12,0,0,1,.14.11c0,0.09-.09.14-0.29,0.14-1,0-2.12-.05-2.21-0.05s-1.22.05-1.76,0.05c-0.2,0-.29,0-0.29-0.14a0.12,0.12,0,0,1,.14-0.11,2.68,2.68,0,0,0,.54-0.07,1,1,0,0,0,.52-1c0.09-.75.09-2.17,0.09-3.9V41.64l-2.66,0c-1.11,0-1.54.14-1.83,0.57a3.28,3.28,0,0,0-.31.56,0.2,0.2,0,0,1-.18.18c-0.05,0-.09-0.05-0.09-0.16S493,41.1,493,41a0.61,0.61,0,0,1,.18-0.34,3.35,3.35,0,0,0,.79.22c0.52,0.05,1.2.09,1.42,0.09h6.73a7.07,7.07,0,0,0,1.27-.09c0.27,0,.43-0.09.5-0.09S504,40.85,504,41c0,0.54-.05,1.78-0.05,2s-0.05.23-.13,0.23-0.12-.05-0.14-0.31l0-.2c-0.05-.54-0.48-1-2.21-1l-2.26,0v7.59h0Z" transform="translate(-1.3 0)"/><path class="cls-2" d="M62.71,42.11a31.6,31.6,0,1,0-59.62,0H62.71Z" transform="translate(-1.3 0)"/><path class="cls-3" d="M4,44.5a31.61,31.61,0,0,0,57.72,0H4Z" transform="translate(-1.3 0)"/><path class="cls-1" d="M19.41,40.35V39.87c2-.13,2.3-0.54,2.3-2.66V25.74L15.19,40.35H14.84l-6.45-14V36.49c0,2.81.41,3.27,2.38,3.37v0.49h-6V39.87c2.12-.15,2.48-0.51,2.48-3.37V26.33c0-1.94-.33-2.27-2.43-2.4V23.44H9.9l5.91,12.82,5.65-12.82h5.09v0.49c-1.84,0-2.23.46-2.23,2.38V37.49c0,1.81.38,2.25,2.25,2.38v0.49H19.41Z" transform="translate(-1.3 0)"/><path class="cls-4" d="M43.41,37.46a8.16,8.16,0,0,1-7,3.24,8.66,8.66,0,0,1-6-2.27A8.93,8.93,0,0,1,27.93,32a9.22,9.22,0,0,1,2.3-6.31,8.14,8.14,0,0,1,6.22-2.66,11.44,11.44,0,0,1,3,.38,9.06,9.06,0,0,0,1.76.46,1.11,1.11,0,0,0,1.07-.84h0.51l0.23,5.8H42.48A5.44,5.44,0,0,0,41.15,26,5.5,5.5,0,0,0,37,24.1c-3.86,0-6.14,3.12-6.14,7.54,0,2.81.64,4.8,1.84,6.1a6.19,6.19,0,0,0,4.55,1.84c2.3,0,3.71-.77,5.63-2.58Z" transform="translate(-1.3 0)"/><path class="cls-4" d="M55.07,31.46a5.32,5.32,0,0,1,3.12,1.4,3.93,3.93,0,0,1,1.25,2.94c0,2.83-2.4,4.55-6.11,4.55H44.71V39.87c2-.05,2.46-0.46,2.46-2.4V26.3c0-2-.38-2.25-2.46-2.38V23.44h7.16c4.42,0,6.7,1.56,6.7,4.26a3.66,3.66,0,0,1-1,2.66,5,5,0,0,1-2.46,1.07v0h0ZM52.13,31C54.71,31,56,30,56,27.83s-1.48-3.45-4.53-3.45h-1c-0.44,0-.61.23-0.61,0.82V31h2.35Zm-2.35,7.25c0,0.87.41,1.15,1.59,1.15,2.15,0,3-.1,4.17-1.1a3.23,3.23,0,0,0,1-2.53A3,3,0,0,0,55.3,33c-1.53-1-2.51-.92-5.53-1v6.23Z" transform="translate(-1.3 0)"/></svg>