<svg width="161" height="182" xmlns="http://www.w3.org/2000/svg" xmlns:xlink="http://www.w3.org/1999/xlink" overflow="hidden"><defs><clipPath id="clip0"><path d="M990 279 1151 279 1151 461 990 461Z" fill-rule="evenodd" clip-rule="evenodd"/></clipPath></defs><g clip-path="url(#clip0)" transform="translate(-990 -279)"><path d="M1036.67 460 1030.69 429.673C992.206 407.961 978.614 359.165 1000.33 320.686 1022.04 282.206 1070.83 268.614 1109.31 290.327 1147.79 312.039 1161.39 360.835 1139.67 399.314 1123.65 427.716 1091.99 443.547 1059.65 439.327Z" fill="#374656" fill-rule="evenodd"/><path d="M1076.9 375.091 1076.9 375.091C1076.9 375.091 1099.87 357.948 1097.65 339.377L1097.65 338.338C1096.48 338.338 1096.48 338.338 1096.48 338.338 1078.07 336 1061.75 359.117 1061.75 359.117 1047.92 356.649 1049.09 360.156 1042.17 375.091 1041 378.597 1043.35 378.597 1045.57 378.597 1047.92 377.429 1052.49 376.26 1052.49 376.26 1060.71 384.312 1060.71 384.312 1060.71 384.312 1060.71 384.312 1059.4 388.857 1058.36 391.195 1057.19 393.532 1058.36 395.87 1060.71 394.701 1075.72 387.688 1079.11 388.857 1076.9 375.091ZM1080.29 355.481 1080.29 355.481C1078.07 353.273 1078.07 350.935 1080.29 348.597 1082.64 346.39 1086.03 346.39 1087.21 348.597 1089.56 350.935 1089.56 353.273 1087.21 355.481 1086.03 357.948 1082.64 357.948 1080.29 355.481Z" fill="#FFFFFF" fill-rule="evenodd"/></g></svg>