<svg width="162" height="181" xmlns="http://www.w3.org/2000/svg" xmlns:xlink="http://www.w3.org/1999/xlink" overflow="hidden"><defs><clipPath id="clip0"><path d="M133 286 295 286 295 467 133 467Z" fill-rule="evenodd" clip-rule="evenodd"/></clipPath></defs><g clip-path="url(#clip0)" transform="translate(-133 -286)"><path d="M180.667 466 174.686 435.673C136.206 413.961 122.614 365.165 144.327 326.686 166.039 288.206 214.835 274.614 253.314 296.327 291.794 318.039 305.386 366.835 283.673 405.314 267.647 433.716 235.986 449.547 203.648 445.327Z" fill="#374656" fill-rule="evenodd"/><path d="M244.82 354.812 244.82 354.812C239.076 340.526 229.184 329 223.44 330.299 214.984 334.844 229.184 352.052 186.744 369.26 182.436 370.721 181 376.403 182.436 380.786 183.872 383.708 189.456 387.929 193.924 386.63L196.636 385.169C199.508 389.39 202.38 386.63 202.38 389.39 203.816 392.312 206.528 397.993 206.528 399.455 207.964 400.916 209.4 403.838 210.836 402.377 212.272 402.377 217.856 400.916 219.292 399.455 222.004 399.455 222.004 397.993 220.728 396.532 220.728 395.234 217.856 393.773 217.856 392.312 216.42 390.851 214.984 385.169 213.548 383.708 212.272 382.247 214.984 379.325 217.856 379.325 237.64 378.026 240.512 389.39 247.533 386.63 251.84 385.169 251.84 369.26 244.82 354.812ZM243.225 379.325 243.225 379.325C241.789 379.325 233.333 373.643 229.184 362.117 224.876 350.591 224.876 339.065 226.312 339.065 227.748 339.065 234.769 346.208 239.076 357.734 244.82 369.26 243.225 378.026 243.225 379.325Z" fill="#FFFFFF" fill-rule="evenodd"/></g></svg>